<svg width="32" height="32" viewBox="0 0 32 32" fill="none" xmlns="http://www.w3.org/2000/svg">
<rect width="32" height="32" rx="5" fill="white"/>
<path d="M13.648 23.42C12.5653 23.42 11.6507 23.112 10.904 22.496C10.176 21.88 9.812 20.9933 9.812 19.836C9.812 18.9587 10.26 18.156 11.156 17.428C12.052 16.6813 13.4613 16.1213 15.384 15.748C15.6827 15.692 16.0187 15.636 16.392 15.58C16.7653 15.5053 17.1573 15.4307 17.568 15.356V13.144C17.568 11.8747 17.4093 10.988 17.092 10.484C16.7933 9.96133 16.3173 9.7 15.664 9.7C15.216 9.7 14.8613 9.84933 14.6 10.148C14.3387 10.428 14.1707 10.9227 14.096 11.632L14.04 11.94C14.0027 12.7427 13.8067 13.3307 13.452 13.704C13.0973 14.0773 12.6587 14.264 12.136 14.264C11.6507 14.264 11.2493 14.1147 10.932 13.816C10.6147 13.5173 10.456 13.116 10.456 12.612C10.456 11.8467 10.7173 11.2027 11.24 10.68C11.7813 10.1573 12.4907 9.76533 13.368 9.504C14.2453 9.24267 15.1973 9.112 16.224 9.112C17.8853 9.112 19.164 9.52267 20.06 10.344C20.9747 11.1467 21.432 12.4627 21.432 14.292V20.48C21.432 21.32 21.824 21.74 22.608 21.74H23.224L23.476 21.964C23.1213 22.412 22.7293 22.7573 22.3 23C21.8893 23.2427 21.3013 23.364 20.536 23.364C19.7147 23.364 19.0613 23.1773 18.576 22.804C18.1093 22.412 17.8013 21.8987 17.652 21.264C17.092 21.8613 16.5133 22.3747 15.916 22.804C15.3373 23.2147 14.5813 23.42 13.648 23.42ZM15.356 21.712C15.7293 21.712 16.0747 21.628 16.392 21.46C16.728 21.2733 17.12 20.9933 17.568 20.62V15.916C17.3813 15.9533 17.1947 15.9907 17.008 16.028C16.8213 16.0653 16.6067 16.1027 16.364 16.14C15.5053 16.364 14.8147 16.7467 14.292 17.288C13.788 17.8107 13.536 18.52 13.536 19.416C13.536 20.1813 13.7133 20.76 14.068 21.152C14.4227 21.5253 14.852 21.712 15.356 21.712Z" fill="black"/>
</svg>
