<svg width="672" height="140" viewBox="0 0 672 140" fill="none" xmlns="http://www.w3.org/2000/svg">
<path d="M23.224 104.46C16.8827 104.46 11.5253 102.656 7.152 99.048C2.888 95.44 0.756 90.2467 0.756 83.468C0.756 78.3293 3.38 73.628 8.628 69.364C13.876 64.9907 22.1307 61.7107 33.392 59.524C35.1413 59.196 37.1093 58.868 39.296 58.54C41.4827 58.1027 43.7787 57.6653 46.184 57.228V44.272C46.184 36.8373 45.2547 31.644 43.396 28.692C41.6467 25.6307 38.8587 24.1 35.032 24.1C32.408 24.1 30.3307 24.9747 28.8 26.724C27.2693 28.364 26.2853 31.2613 25.848 35.416L25.52 37.22C25.3013 41.9213 24.1533 45.3653 22.076 47.552C19.9987 49.7387 17.4293 50.832 14.368 50.832C11.5253 50.832 9.17467 49.9573 7.316 48.208C5.45733 46.4587 4.528 44.108 4.528 41.156C4.528 36.6733 6.05867 32.9013 9.12 29.84C12.2907 26.7787 16.4453 24.4827 21.584 22.952C26.7227 21.4213 32.2987 20.656 38.312 20.656C48.0427 20.656 55.532 23.0613 60.78 27.872C66.1373 32.5733 68.816 40.2813 68.816 50.996V87.24C68.816 92.16 71.112 94.62 75.704 94.62H79.312L80.788 95.932C78.7107 98.556 76.4147 100.579 73.9 102C71.4947 103.421 68.0507 104.132 63.568 104.132C58.7573 104.132 54.9307 103.039 52.088 100.852C49.3547 98.556 47.5507 95.5493 46.676 91.832C43.396 95.3307 40.0067 98.3373 36.508 100.852C33.1187 103.257 28.6907 104.46 23.224 104.46ZM33.228 94.456C35.4147 94.456 37.4373 93.964 39.296 92.98C41.264 91.8867 43.56 90.2467 46.184 88.06V60.508C45.0907 60.7267 43.9973 60.9453 42.904 61.164C41.8107 61.3827 40.5533 61.6013 39.132 61.82C34.1027 63.132 30.0573 65.3733 26.996 68.544C24.044 71.6053 22.568 75.76 22.568 81.008C22.568 85.4907 23.6067 88.88 25.684 91.176C27.7613 93.3627 30.276 94.456 33.228 94.456ZM80.9597 139.72V138.08L82.9277 137.424C86.973 136.331 88.9957 133.707 88.9957 129.552V40.336C88.9957 37.9307 88.5584 36.1267 87.6837 34.924C86.9184 33.7213 85.4424 32.9013 83.2557 32.464L80.9597 31.972V30.332L108.84 20.82L110.48 22.46L111.956 27.544C115.564 25.3573 119.554 23.6627 123.928 22.46C128.41 21.2573 133.002 20.656 137.704 20.656C147.106 20.656 154.541 24.264 160.008 31.48C165.584 38.5867 168.372 48.8093 168.372 62.148C168.372 75.268 165.31 85.6 159.188 93.144C153.174 100.688 144.646 104.46 133.604 104.46C124.966 104.46 117.696 103.203 111.792 100.688V129.06C111.792 133.433 113.76 136.167 117.696 137.26L120.812 138.08V139.72H80.9597ZM125.732 99.704C131.198 99.704 135.517 96.8613 138.688 91.176C141.968 85.4907 143.608 76.0333 143.608 62.804C143.608 49.5747 142.077 40.336 139.016 35.088C135.954 29.7307 131.526 27.052 125.732 27.052C121.686 27.052 117.204 28.364 112.284 30.988V97.08C116.438 98.8293 120.921 99.704 125.732 99.704ZM217.897 20.656C225.004 20.656 231.072 22.132 236.101 25.084C241.13 27.9267 244.957 31.8627 247.581 36.892C250.314 41.812 251.681 47.4427 251.681 53.784C251.681 54.9867 251.626 56.244 251.517 57.556C251.408 58.7587 251.189 59.852 250.861 60.836H201.989C202.098 72.644 204.176 81.172 208.221 86.42C212.376 91.5587 218.498 94.128 226.589 94.128C232.056 94.128 236.484 93.2533 239.873 91.504C243.262 89.7547 246.433 87.1853 249.385 83.796L251.025 85.272C247.636 91.2853 243.098 95.9867 237.413 99.376C231.837 102.765 225.113 104.46 217.241 104.46C209.478 104.46 202.59 102.82 196.577 99.54C190.564 96.1507 185.862 91.34 182.473 85.108C179.084 78.876 177.389 71.4413 177.389 62.804C177.389 53.8387 179.357 46.24 183.293 40.008C187.229 33.6667 192.258 28.856 198.381 25.576C204.613 22.296 211.118 20.656 217.897 20.656ZM217.405 23.936C214.234 23.936 211.501 24.92 209.205 26.888C207.018 28.7467 205.269 32.136 203.957 37.056C202.754 41.8667 202.098 48.7 201.989 57.556H230.033C231.126 45.6387 230.689 37.056 228.721 31.808C226.753 26.56 222.981 23.936 217.405 23.936ZM259.854 102V100.36L262.314 99.704C264.501 99.048 265.977 98.064 266.742 96.752C267.617 95.44 268.054 93.7453 268.054 91.668V40.336C268.054 37.9307 267.617 36.1813 266.742 35.088C265.977 33.8853 264.501 33.0653 262.314 32.628L259.854 31.972V30.332L288.062 20.82L289.702 22.46L291.178 36.564V37.876C292.709 34.8147 294.677 32.0267 297.082 29.512C299.597 26.888 302.33 24.756 305.282 23.116C308.344 21.476 311.35 20.656 314.302 20.656C318.457 20.656 321.628 21.804 323.814 24.1C326.001 26.396 327.094 29.2933 327.094 32.792C327.094 36.5093 326.001 39.4067 323.814 41.484C321.737 43.452 319.222 44.436 316.27 44.436C311.678 44.436 307.633 42.14 304.134 37.548L303.806 37.22C302.713 35.6893 301.456 34.8693 300.034 34.76C298.613 34.5413 297.301 35.1973 296.098 36.728C295.005 37.712 294.076 38.9147 293.31 40.336C292.654 41.648 291.998 43.1787 291.342 44.928V90.684C291.342 95.0573 293.256 97.7907 297.082 98.884L302.33 100.36V102H259.854ZM364.846 104.46C357.849 104.46 352.382 102.711 348.446 99.212C344.62 95.7133 342.706 90.1373 342.706 82.484V26.396H331.39V24.756L335.326 24.1C338.716 23.3347 341.613 22.2413 344.018 20.82C346.533 19.3987 348.993 17.4853 351.398 15.08L364.846 0.155992H366.486L365.994 23.116H384.362V26.396H365.83V85.436C365.83 89.2627 366.65 92.16 368.29 94.128C370.04 96.096 372.226 97.08 374.85 97.08C377.146 97.08 379.169 96.5333 380.918 95.44C382.668 94.2373 384.417 92.652 386.166 90.684L387.806 92.324C385.62 96.0413 382.613 98.9933 378.786 101.18C374.96 103.367 370.313 104.46 364.846 104.46ZM421.667 104.46C417.403 104.46 413.467 103.64 409.859 102C406.36 100.36 403.572 97.736 401.495 94.128C399.527 90.4107 398.598 85.5453 398.707 79.532L399.199 37.384C399.199 34.8693 398.762 33.0653 397.887 31.972C397.012 30.8787 395.646 30.1133 393.787 29.676L391.819 29.02V27.38L421.175 21.64L422.815 23.28L421.995 46.568V86.092C421.995 89.5907 422.979 92.16 424.947 93.8C427.024 95.44 429.594 96.26 432.655 96.26C435.716 96.26 438.45 95.8227 440.855 94.948C443.26 94.0733 445.666 92.7613 448.071 91.012L448.727 37.548C448.727 35.0333 448.344 33.284 447.579 32.3C446.814 31.2067 445.392 30.4413 443.315 30.004L441.675 29.512V27.872L470.375 21.64L472.015 23.28L471.523 46.568V91.012C471.523 93.4173 471.851 95.276 472.507 96.588C473.163 97.9 474.584 98.9933 476.771 99.868L478.411 100.36V102L449.711 103.64L448.235 93.964C444.627 96.916 440.691 99.4307 436.427 101.508C432.272 103.476 427.352 104.46 421.667 104.46ZM485.034 102V100.36L487.494 99.704C489.681 99.048 491.157 98.064 491.922 96.752C492.797 95.44 493.234 93.7453 493.234 91.668V40.336C493.234 37.9307 492.797 36.1813 491.922 35.088C491.157 33.8853 489.681 33.0653 487.494 32.628L485.034 31.972V30.332L513.242 20.82L514.882 22.46L516.358 36.564V37.876C517.889 34.8147 519.857 32.0267 522.262 29.512C524.777 26.888 527.51 24.756 530.462 23.116C533.523 21.476 536.53 20.656 539.482 20.656C543.637 20.656 546.807 21.804 548.994 24.1C551.181 26.396 552.274 29.2933 552.274 32.792C552.274 36.5093 551.181 39.4067 548.994 41.484C546.917 43.452 544.402 44.436 541.45 44.436C536.858 44.436 532.813 42.14 529.314 37.548L528.986 37.22C527.893 35.6893 526.635 34.8693 525.214 34.76C523.793 34.5413 522.481 35.1973 521.278 36.728C520.185 37.712 519.255 38.9147 518.49 40.336C517.834 41.648 517.178 43.1787 516.522 44.928V90.684C516.522 95.0573 518.435 97.7907 522.262 98.884L527.51 100.36V102H485.034ZM596.026 20.656C603.133 20.656 609.201 22.132 614.23 25.084C619.259 27.9267 623.086 31.8627 625.71 36.892C628.443 41.812 629.81 47.4427 629.81 53.784C629.81 54.9867 629.755 56.244 629.646 57.556C629.537 58.7587 629.318 59.852 628.99 60.836H580.118C580.227 72.644 582.305 81.172 586.35 86.42C590.505 91.5587 596.627 94.128 604.718 94.128C610.185 94.128 614.613 93.2533 618.002 91.504C621.391 89.7547 624.562 87.1853 627.514 83.796L629.154 85.272C625.765 91.2853 621.227 95.9867 615.542 99.376C609.966 102.765 603.242 104.46 595.37 104.46C587.607 104.46 580.719 102.82 574.706 99.54C568.693 96.1507 563.991 91.34 560.602 85.108C557.213 78.876 555.518 71.4413 555.518 62.804C555.518 53.8387 557.486 46.24 561.422 40.008C565.358 33.6667 570.387 28.856 576.51 25.576C582.742 22.296 589.247 20.656 596.026 20.656ZM595.534 23.936C592.363 23.936 589.63 24.92 587.334 26.888C585.147 28.7467 583.398 32.136 582.086 37.056C580.883 41.8667 580.227 48.7 580.118 57.556H608.162C609.255 45.6387 608.818 37.056 606.85 31.808C604.882 26.56 601.11 23.936 595.534 23.936ZM657.221 104.46C653.285 104.46 649.95 103.093 647.217 100.36C644.484 97.6267 643.117 94.3467 643.117 90.52C643.117 86.6933 644.484 83.3587 647.217 80.516C649.95 77.6733 653.285 76.252 657.221 76.252C661.157 76.252 664.492 77.6733 667.225 80.516C669.958 83.3587 671.325 86.6933 671.325 90.52C671.325 94.3467 669.958 97.6267 667.225 100.36C664.492 103.093 661.157 104.46 657.221 104.46Z" fill="white"/>
</svg>
