<svg width="32" height="32" viewBox="0 0 32 32" fill="none" xmlns="http://www.w3.org/2000/svg">
<rect width="32" height="32" rx="5" fill="white"/>
<path d="M4.56 25V24.72L4.952 24.608C5.30667 24.5147 5.54933 24.356 5.68 24.132C5.82933 23.908 5.91333 23.6093 5.932 23.236V14.472C5.932 14.0613 5.86667 13.7627 5.736 13.576C5.60533 13.3707 5.35333 13.2307 4.98 13.156L4.56 13.044V12.764L9.348 11.14L9.628 11.42L9.852 13.324C10.468 12.708 11.168 12.1853 11.952 11.756C12.7547 11.3267 13.5853 11.112 14.444 11.112C15.34 11.112 16.0587 11.2987 16.6 11.672C17.1413 12.0267 17.552 12.5867 17.832 13.352C18.56 12.6613 19.344 12.12 20.184 11.728C21.0427 11.3173 21.8733 11.112 22.676 11.112C24.0013 11.112 24.972 11.4293 25.588 12.064C26.2227 12.6987 26.54 13.6973 26.54 15.06V23.264C26.54 23.992 26.876 24.4493 27.548 24.636L27.856 24.72V25H21.388V24.72L21.668 24.636C22.0227 24.524 22.2653 24.356 22.396 24.132C22.5453 23.908 22.62 23.6093 22.62 23.236V14.668C22.62 13.884 22.48 13.352 22.2 13.072C21.92 12.7733 21.472 12.624 20.856 12.624C20.3707 12.624 19.8947 12.736 19.428 12.96C18.98 13.1653 18.504 13.4827 18 13.912C18.0933 14.2107 18.1493 14.5373 18.168 14.892C18.2053 15.2467 18.224 15.62 18.224 16.012V23.264C18.2427 23.992 18.5787 24.4493 19.232 24.636L19.484 24.72V25H12.988V24.72L13.38 24.608C13.7347 24.496 13.9773 24.3373 14.108 24.132C14.2573 23.908 14.332 23.6093 14.332 23.236V14.696C14.332 13.9493 14.192 13.4173 13.912 13.1C13.6507 12.7827 13.1933 12.624 12.54 12.624C12.1107 12.624 11.6813 12.736 11.252 12.96C10.8227 13.1653 10.3747 13.4733 9.908 13.884V23.264C9.908 23.992 10.2347 24.4493 10.888 24.636L11.14 24.72V25H4.56Z" fill="black"/>
</svg>
